<svg width="404" height="400" viewBox="0 0 404 400" fill="none" xmlns="http://www.w3.org/2000/svg">
<g clip-path="url(#clip0_104_85)">
<path d="M369.188 337.984C365.539 329.145 361.322 319.787 353.17 314.79C348.91 312.179 343.941 311.015 339.046 310.01C329.503 308.051 319.866 306.548 310.179 305.507C300.07 304.421 289.803 303.843 279.774 305.515C274.093 306.462 268.557 308.12 262.941 309.398C258.867 310.325 254.706 311.065 250.902 312.793C244.5 315.699 239.578 321.227 236.148 327.364C232.718 333.501 230.629 340.279 228.564 347C226.494 353.738 224.41 360.552 223.971 367.587C223.629 373.062 224.239 378.808 223.893 384.265L238.522 384.813C245.899 383.356 254.079 387.51 261.225 384.48C267.041 382.015 268.712 374.809 270.854 368.866C273.122 362.577 276.716 356.771 281.335 351.937C283.662 349.501 286.293 347.281 289.377 345.927C293.297 344.206 297.686 343.986 301.963 343.791C313.841 343.249 326.801 343.022 336.291 350.187C345.554 357.181 348.989 369.364 351.18 380.762C351.287 381.319 351.422 381.926 351.868 382.277C352.187 382.528 352.608 382.598 353.009 382.66C360.148 383.758 367.286 384.857 374.425 385.955C375.994 386.196 377.882 386.322 378.871 385.081C379.405 384.41 379.516 383.505 379.584 382.65C380.815 367.263 375.079 352.253 369.188 337.984Z" fill="#2C2228"/>
<path d="M32.1251 66.827C41.6801 77.636 53.799 85.866 66.298 93.072C70.432 95.455 74.6671 97.758 79.2531 99.075C85.1501 100.768 91.3811 100.763 97.5161 100.746C108.846 100.715 120.315 100.666 131.289 97.847C153.147 92.231 170.722 76.313 186.441 60.119C192.135 54.253 198.09 47.336 197.779 39.167C197.733 37.948 197.499 36.646 196.636 35.784C195.887 35.036 194.801 34.756 193.762 34.557C175.934 31.147 158.667 42.849 140.538 43.747C137.865 43.879 135.148 43.769 132.586 42.996C127.971 41.604 124.281 38.223 120.297 35.51C108.706 27.617 93.5211 25.247 80.0761 29.234C70.7341 32.004 62.237 37.643 52.576 38.913C46.465 39.716 40.1231 38.669 34.5951 35.943C27.6871 32.537 14.102 24.646 16.811 39.101C18.708 49.224 25.4351 59.259 32.1251 66.827Z" fill="#446444"/>
<path d="M11.421 69.945C27.731 85.759 50.393 92.394 72.597 93.785C84.878 94.554 97.324 94.004 109.545 92.628C121.104 91.327 132.649 88.883 143.085 83.579C153.626 78.221 162.674 70.14 169.324 60.377C170.414 58.777 167.815 57.275 166.734 58.863C161.015 67.26 153.394 74.306 144.582 79.361C134.825 84.958 123.788 87.762 112.709 89.242C101.062 90.798 89.146 91.395 77.403 91.013C65.946 90.64 54.49 89.066 43.578 85.465C32.456 81.794 21.982 76.008 13.542 67.825C12.155 66.479 10.032 68.598 11.421 69.945Z" fill="#272425"/>
<path d="M29.958 81.939C29.404 85.796 28.868 89.656 28.294 93.51C27.834 96.602 27.301 99.911 25.447 102.518C23.599 105.117 20.603 106.618 18.732 109.218C16.801 111.902 16.365 115.303 16.422 118.528C16.471 121.348 16.471 124.943 18.573 127.118C20.821 129.444 24.451 129.021 26.814 127.137C29.275 125.175 30.541 122.038 31.587 119.162C32.63 116.292 33.406 113.287 34.879 110.594C36.623 107.404 40 105.637 41.181 102.114C41.823 100.199 42.162 98.155 42.615 96.19C43.137 93.926 43.659 91.662 44.181 89.398C44.614 87.519 41.722 86.717 41.288 88.6C40.468 92.158 39.658 95.718 38.827 99.274C38.506 100.649 38.202 102.065 37.29 103.187C36.326 104.372 35.035 105.248 34.068 106.441C30.495 110.852 29.871 116.605 27.35 121.544C26.335 123.532 23.93 126.971 21.23 125.429C20.106 124.787 19.796 123.28 19.642 122.103C19.451 120.653 19.403 119.156 19.418 117.695C19.449 114.697 20.081 111.884 22.249 109.699C24.261 107.671 26.675 106.145 28.256 103.706C29.992 101.027 30.652 97.811 31.127 94.703C31.735 90.72 32.277 86.725 32.85 82.737C32.966 81.929 32.651 81.135 31.802 80.892C31.1 80.69 30.073 81.138 29.958 81.939Z" fill="#272425"/>
<path d="M61.801 91.399C61.054 94.665 60.333 98.029 60.87 101.386C61.383 104.591 63.224 107.274 63.239 110.605C63.253 113.838 62.314 116.978 61.542 120.089C60.812 123.033 59.843 126.414 60.617 129.441C61.326 132.217 63.845 134.396 66.806 133.834C69.586 133.306 71.866 130.908 73.413 128.677C74.986 126.409 75.922 123.745 76.223 121.01C76.58 117.757 75.42 114.644 75.509 111.41C75.604 107.928 76.9 104.813 75.837 101.336C75.43 100.005 74.999 98.679 74.699 97.318C74.434 96.118 74.091 94.523 74.671 93.363C75.531 91.641 72.944 90.12 72.081 91.849C69.837 96.341 73.626 100.773 73.321 105.279C73.221 106.75 72.862 108.194 72.671 109.654C72.471 111.175 72.498 112.636 72.697 114.155C73.057 116.905 73.626 119.549 72.986 122.306C72.422 124.734 71.227 126.989 69.48 128.774C68.604 129.669 67.488 130.688 66.209 130.893C64.865 131.109 63.935 130.043 63.574 128.853C62.76 126.173 63.949 122.833 64.605 120.224C65.327 117.351 66.095 114.451 66.225 111.476C66.294 109.9 66.157 108.285 65.76 106.755C65.384 105.307 64.704 103.967 64.238 102.55C63.118 99.142 63.921 95.589 64.697 92.198C65.123 90.317 62.232 89.515 61.801 91.399Z" fill="#272425"/>
<path d="M96.12 92.696C95.548 96.235 95 99.828 95.502 103.409C96.016 107.072 97.826 110.12 100.398 112.726C101.62 113.964 103.216 115.009 104.234 116.425C105.268 117.863 105.526 119.852 105.574 121.574C105.685 125.474 104.586 129.285 104.102 133.13C103.894 134.786 103.968 136.347 105.626 137.191C106.929 137.855 108.618 137.763 110.026 137.582C113.102 137.186 115.981 135.729 118.193 133.56C120.503 131.294 121.972 128.298 122.278 125.073C122.623 121.445 120.85 118.434 119.108 115.417C116.982 111.733 116.412 108.026 116.715 103.81C116.867 101.696 116.44 100.287 115.082 98.673C113.822 97.175 113.277 95.412 113.752 93.48C114.213 91.605 111.32 90.806 110.859 92.682C110.511 94.099 110.472 95.548 110.828 96.97C111.22 98.54 112.101 99.697 113.08 100.933C114.092 102.21 113.696 103.615 113.636 105.134C113.567 106.89 113.664 108.646 113.963 110.379C114.517 113.59 116.163 116.198 117.712 118.996C119.33 121.918 119.872 124.951 118.441 128.097C117.302 130.602 115.188 132.629 112.69 133.761C111.525 134.289 110.236 134.626 108.957 134.684C108.496 134.705 107.659 134.83 107.255 134.61C106.867 134.398 106.968 134.599 106.998 134.039C107.031 133.414 107.149 132.784 107.245 132.167C108.184 126.158 110.516 118.215 105.477 113.349C102.786 110.75 99.859 108.461 98.809 104.689C97.797 101.051 98.421 97.15 99.012 93.496C99.317 91.605 96.427 90.792 96.12 92.696Z" fill="#272425"/>
<path d="M131.947 86.139C131.087 91.633 130.922 97.821 134.896 102.22C136.766 104.29 139.3 105.6 141.766 106.816C142.972 107.411 144.191 107.989 145.353 108.667C146.807 109.516 147.55 110.476 148.028 112.069C148.708 114.336 149.337 118.243 152.539 117.813C153.834 117.639 154.846 116.728 155.726 115.826C156.914 114.607 157.945 113.241 158.956 111.876C160.816 109.367 162.462 106.875 162.049 103.609C161.668 100.59 159.921 98.034 157.869 95.876C155.512 93.397 152.488 91.223 151.123 87.976C149.94 85.163 151.536 81.637 149.138 79.309C147.752 77.963 145.629 80.082 147.017 81.43C147.739 82.131 147.595 83.233 147.574 84.163C147.545 85.46 147.578 86.732 147.953 87.987C148.708 90.509 150.372 92.641 152.188 94.496C155.457 97.833 161.317 102.293 158.292 107.583C156.982 109.873 155.189 112.169 153.301 114.009C153.004 114.298 152.384 114.929 152.097 114.777C151.789 114.614 151.637 113.775 151.534 113.457C151.146 112.256 150.905 111.02 150.409 109.854C149.379 107.435 147.251 106.217 145.001 105.078C142.908 104.019 140.726 103.079 138.812 101.704C134.032 98.27 134.01 92.224 134.837 86.936C135.136 85.048 132.246 84.234 131.947 86.139Z" fill="#272425"/>
<path d="M157.072 72.276C157.933 76.418 160.653 79.757 163.996 82.222C164.803 82.817 165.65 83.355 166.528 83.838C167.453 84.347 168.506 84.709 169.369 85.321C170.219 85.924 170.304 86.714 170.464 87.682C170.632 88.7 170.911 89.698 171.643 90.465C173.118 92.01 175.545 91.791 177.235 90.768C178.097 90.246 178.845 89.541 179.592 88.871C180.503 88.054 181.585 87.269 182.266 86.234C183.638 84.149 182.505 81.9 181.122 80.178C179.672 78.372 177.956 76.809 176.375 75.123C174.458 73.078 173.187 70.786 171.781 68.387C170.391 66.014 168.641 64.043 166.392 62.456C164.812 61.34 163.311 63.94 164.878 65.046C168.335 67.486 169.567 71.273 171.987 74.546C173.107 76.06 174.397 77.415 175.717 78.753C177.037 80.092 178.784 81.522 179.623 83.234C180.085 84.178 179.792 84.643 179.073 85.308C178.282 86.04 177.478 86.765 176.662 87.47C176.095 87.959 175.372 88.567 174.579 88.596C173.612 88.631 173.514 87.835 173.383 87.053C173.097 85.354 172.642 84.001 171.189 82.945C169.776 81.919 168.062 81.336 166.592 80.382C163.379 78.296 160.759 75.299 159.964 71.479C159.572 69.59 156.68 70.389 157.072 72.276Z" fill="#272425"/>
<path d="M350.771 144.899C350.335 144.453 349.505 143.323 348.905 143.098C348.701 143.022 348.637 142.966 348.624 142.926C348.618 142.929 348.618 142.93 348.611 142.933C348.386 143.025 348.175 143.571 348.077 143.768C347.544 144.838 347.148 145.979 346.624 147.057C345.409 149.555 343.95 151.924 342.437 154.25C339.794 158.316 336.913 162.3 334.81 166.685C339.219 166.546 343.632 165.916 347.977 165.211C351.04 164.714 354.086 164.09 357.075 163.249C358.407 162.874 360.119 162.58 361.308 161.851C362.537 161.098 361.3 159.397 360.778 158.52C357.896 153.675 354.725 148.941 350.771 144.899Z" fill="#4464A5"/>
<path d="M378.341 113.398C376.865 110.855 374.511 108.933 372.274 107.087C371.52 106.464 370.764 105.843 370.01 105.221C369.674 104.944 369.339 104.668 369.003 104.392C368.941 104.341 368.764 104.22 368.575 104.085C368.523 104.391 368.473 104.698 368.424 105.004C368.28 105.891 368.139 106.779 368.011 107.669C367.582 110.647 367.34 113.662 367.535 116.664C367.76 116.63 367.985 116.602 368.208 116.591C369.113 116.545 370.057 116.683 370.964 116.706C371.884 116.729 372.805 116.732 373.725 116.691C375.316 116.62 376.887 116.406 378.41 115.925C378.477 115.904 378.942 115.699 379.269 115.576C379.234 115.459 379.205 115.334 379.17 115.224C378.964 114.58 378.679 113.98 378.341 113.398Z" fill="#4464A5"/>
<path d="M361.336 30.018C342.639 10.792 315.514 -0.768 288.619 -0.053C278.234 0.223 261.258 1.699 272.965 14.593C282.432 25.019 298.316 30.855 308.771 41.219C319.138 51.495 328.686 63.586 331.347 77.938C335.414 99.873 322.396 121.605 306.219 136.967C293.819 148.743 279.254 158.223 263.493 164.854C257.408 167.414 257.728 176.211 264.035 178.161C272.084 180.65 280.785 181.623 289.229 182.234C302.54 183.197 315.941 183.525 329.214 182.129C344.298 180.543 359.144 176.721 373.12 170.828C380.461 167.732 387.924 163.746 392.105 156.963C395.477 151.492 396.296 144.86 396.713 138.447C399.255 99.374 388.634 58.088 361.336 30.018ZM363.442 164.014C362.359 164.889 360.812 165.274 359.474 165.67C356.217 166.634 352.914 167.427 349.561 167.975C343.948 168.893 338.206 169.774 332.503 169.715C332.111 169.711 331.802 169.58 331.569 169.38C331.061 169.089 330.76 168.537 331.057 167.816C333.827 161.082 338.382 155.423 342.056 149.196C342.901 147.765 343.693 146.301 344.39 144.792C344.992 143.488 345.387 142.016 346.38 140.936C349.018 138.07 352.008 141.797 353.785 143.717C356.027 146.139 358.033 148.779 359.884 151.508C360.859 152.945 361.79 154.411 362.695 155.892C363.468 157.158 364.359 158.465 364.7 159.931C365.058 161.469 364.697 163 363.442 164.014ZM380.909 118.165C379.024 119.048 376.938 119.434 374.878 119.614C372.948 119.783 371.007 119.723 369.075 119.631C369.02 119.628 368.547 119.572 368.515 119.55C368.469 119.559 368.423 119.572 368.377 119.574C368.148 119.584 367.905 119.656 367.681 119.695C367.319 119.758 366.958 119.821 366.596 119.884C366.578 119.887 366.56 119.883 366.542 119.885C366.426 119.916 366.31 119.937 366.198 119.937C365.746 119.937 365.392 119.753 365.139 119.467C364.969 119.3 364.825 119.102 364.752 118.836C364.722 118.726 364.711 118.611 364.709 118.494C364.706 118.475 364.701 118.457 364.698 118.438C364.073 113.52 364.81 108.588 365.608 103.735C365.759 102.815 365.892 101.847 366.602 101.165C367.375 100.422 368.526 100.394 369.424 100.918C370.398 101.486 371.263 102.382 372.131 103.097C372.919 103.746 373.708 104.395 374.495 105.045C377.205 107.283 380.039 109.726 381.506 113.002C382.28 114.734 383.113 117.133 380.909 118.165Z" fill="#4464A5"/>
<path d="M110.336 279.42C98.256 270.095 87.791 258.682 79.547 245.84C75.112 238.931 71.233 231.336 70.697 223.143C70.378 218.281 72.397 212.203 77.242 211.684C80.444 211.341 83.268 213.685 85.45 216.054C93.692 225.005 98.857 236.32 106.072 246.118C113.287 255.916 123.829 264.666 135.995 264.505C136.777 264.495 137.608 264.431 138.241 263.971C139.783 262.85 139.117 260.438 138.244 258.743C133.668 249.856 127.462 241.812 120.028 235.129C110.158 226.256 97.644 219.106 92.68 206.798C91.098 202.876 90.407 198.661 89.783 194.479C89.001 189.237 88.579 183.123 92.372 179.421C95.755 176.118 101.396 176.207 105.612 178.347C109.828 180.487 112.951 184.246 115.949 187.903C127.032 201.422 138.116 214.941 149.199 228.459C152.879 232.948 156.629 237.501 161.43 240.764C166.231 244.026 172.317 245.875 177.919 244.355C180.129 238.948 176.26 233.096 172.426 228.689C164.093 219.114 154.847 210.311 147.243 200.147C139.639 189.984 133.642 178.096 133.086 165.416C132.96 162.539 133.256 159.327 135.375 157.376C137.093 155.793 139.583 155.445 141.909 155.23C146.65 154.793 151.414 154.608 156.175 154.674C158.076 154.7 160.028 154.778 161.773 155.531C163.886 156.442 165.469 158.241 166.919 160.027C185.294 182.66 194.641 212.497 216.806 231.435C218.637 232.999 220.634 234.52 222.992 235.009C225.349 235.498 228.147 234.657 229.215 232.499C230.013 230.888 229.699 228.947 229.1 227.252C226.844 220.865 221.154 216.45 216.001 212.054C203.371 201.281 191.859 187.132 191.151 170.546C191.03 167.714 191.36 164.578 193.414 162.625C197.244 158.983 203.584 162.046 207.352 165.752C224.657 182.77 228.669 211.089 248.484 225.103C249.638 225.919 250.911 226.701 252.323 226.751C253.905 226.808 255.359 225.94 256.663 225.044C266.171 218.509 273.89 208.564 285.099 205.833C289.212 204.831 293.816 204.98 297.357 207.3C300.249 209.195 302.149 212.376 302.959 215.737C305.611 226.746 297.49 237.169 289.922 245.594C283.768 252.446 277.233 259.558 268.54 262.6C264.276 264.092 259.113 264.925 256.929 268.879C254.584 273.125 257.128 278.284 259.354 282.594C263.81 291.221 267.108 300.445 269.132 309.941C269.733 312.761 270.224 315.661 269.828 318.518C268.86 325.509 262.745 330.794 256.196 333.426C246.313 337.398 234.643 336.627 225.369 331.387C219.879 328.285 215.119 323.688 209.056 321.959C202.932 320.212 196.321 321.648 190.059 320.485C185.476 319.634 181.272 317.43 177.172 315.215C164.62 308.432 152.295 301.246 140.168 293.731C130.451 287.711 119.707 286.653 110.336 279.42Z" fill="#DCB82B"/>
<path d="M353.511 324.083C351.188 321.6 349.405 318.645 348.351 315.407C347.282 312.121 346.611 308.153 347.904 304.836C349.081 301.816 351.923 299.709 354.655 298.179C357.802 296.417 361.264 295.638 364.647 297.231C367.64 298.64 370.298 301.125 372.324 303.71C374.256 306.176 375.718 309.161 375.921 312.324C376.324 318.625 372.456 324.627 366.378 326.516C363.707 327.346 360.141 327.638 357.584 326.393C356.08 325.661 354.654 324.69 353.207 323.849C351.534 322.877 350.022 325.469 351.693 326.439C353.182 327.304 354.648 328.235 356.17 329.041C358.979 330.528 362.882 330.416 365.897 329.747C373.304 328.103 378.567 321.545 378.932 314.022C379.308 306.284 373.68 298.959 367.229 295.209C363.648 293.128 359.677 292.797 355.815 294.319C352.255 295.722 348.733 298.083 346.487 301.222C343.707 305.105 343.881 310.208 345.007 314.647C346.106 318.977 348.343 322.949 351.389 326.205C352.711 327.617 354.829 325.492 353.511 324.083Z" fill="#C34638"/>
<path d="M325.927 289.686C326.744 288.678 327.696 287.853 328.84 287.237C329.935 286.647 331.335 286.137 332.597 286.305C333.811 286.467 334.774 287.417 335.504 288.332C336.259 289.279 336.792 290.379 336.463 291.599C335.855 293.854 333.734 296.202 331.422 296.724C329.152 297.237 326.746 296.038 325.815 293.907C325.439 293.045 325.214 291.89 325.519 290.977C325.741 290.315 326.049 289.671 326.312 289.023C326.617 288.272 325.981 287.375 325.264 287.178C324.406 286.942 323.725 287.472 323.419 288.226C323.143 288.906 322.804 289.586 322.583 290.285C322.131 291.715 322.434 293.513 322.986 294.868C324.35 298.216 327.795 300.216 331.387 299.753C334.96 299.293 337.835 296.331 339.121 293.084C339.841 291.265 339.633 289.336 338.662 287.653C337.775 286.115 336.361 284.594 334.727 283.853C330.939 282.135 326.223 284.58 323.805 287.564C323.295 288.193 323.19 289.071 323.805 289.685C324.333 290.213 325.415 290.319 325.927 289.686Z" fill="#C34638"/>
<path d="M199.487 163.401C202.744 180.745 206.058 198.26 212.918 214.61C214.616 218.656 216.526 222.598 218.653 226.436C220.879 230.455 223.262 234.387 225.349 238.482C229.446 246.521 232.133 255.318 233.112 264.294C233.501 267.858 233.685 271.745 232.265 275.122C230.688 278.873 227.099 280.422 223.421 281.481C214.32 284.102 204.863 284.771 195.448 283.935C190.777 283.521 186.144 282.758 181.555 281.801C177.991 281.058 174.226 279.659 170.535 280.103C167.428 280.476 164.597 282.725 165.344 286.171C166.124 289.769 170.197 291.453 173.206 292.732C177.34 294.489 181.589 295.958 185.937 297.091C188.084 297.65 190.251 298.13 192.433 298.528C194.374 298.882 196.352 299.061 198.281 299.468C199.599 299.746 201.211 300.134 202.171 301.157C203.26 302.318 202.488 303.685 201.43 304.561C199.894 305.833 197.825 306.605 195.961 307.243C193.952 307.931 191.862 308.432 189.752 308.678C187.647 308.924 185.526 308.932 183.416 308.755C182.231 308.655 181.615 310.088 182.121 311.012C184.093 314.617 187.134 317.645 190.81 319.506C191.695 319.954 192.622 320.283 193.531 320.672C194.015 320.879 195.184 321.285 195.322 321.889C195.636 323.258 191.414 324.012 190.625 324.231C181.007 326.905 170.95 327.651 161.034 326.545C159.118 326.331 159.133 329.333 161.034 329.545C169.662 330.507 178.413 330.058 186.902 328.236C189.027 327.78 191.132 327.234 193.212 326.603C194.773 326.129 196.466 325.594 197.527 324.273C198.537 323.017 198.602 321.295 197.653 319.984C196.711 318.683 195.16 318.12 193.727 317.544C189.857 315.988 186.709 313.151 184.711 309.498C184.279 310.25 183.848 311.003 183.416 311.755C187.763 312.121 192.193 311.631 196.344 310.275C199.597 309.212 204.427 307.52 205.519 303.835C206.556 300.333 203.625 297.951 200.641 296.985C198.898 296.421 197.067 296.27 195.268 295.984C193.002 295.624 190.749 295.177 188.517 294.644C184.127 293.596 179.817 292.216 175.635 290.519C173.858 289.798 166.603 287.339 168.48 284.211C169.14 283.111 170.794 283.018 171.931 283.02C173.745 283.023 175.468 283.516 177.223 283.919C181.901 284.993 186.618 285.881 191.38 286.491C200.795 287.699 210.32 287.565 219.615 285.535C223.658 284.652 228.16 283.662 231.467 281.027C234.494 278.615 235.832 274.967 236.237 271.22C236.68 267.126 236.056 262.907 235.343 258.88C234.539 254.345 233.325 249.883 231.721 245.566C228.495 236.884 223.353 229.246 219.174 221.035C210.951 204.879 207.039 186.972 203.648 169.292C203.221 167.063 202.801 164.833 202.382 162.602C202.024 160.708 199.132 161.511 199.487 163.401Z" fill="#272425"/>
<path d="M31.3391 164.341C31.5381 163.328 31.8861 162.14 32.8701 161.827C33.4621 161.639 34.1011 161.845 34.6821 162.066C38.2601 163.425 41.5741 165.384 44.8681 167.334C50.4051 170.611 55.9431 173.887 61.4801 177.164C62.6761 177.872 63.9161 178.622 64.6591 179.796C65.9071 181.769 65.3731 184.476 63.9711 186.342C62.5691 188.209 60.4691 189.406 58.3941 190.473C52.6321 193.437 46.5411 195.834 41.2011 199.505C37.7471 201.88 33.1281 207.474 28.6441 207.355C23.0341 207.206 23.9751 201.796 24.7231 197.997C26.9321 186.778 29.1331 175.559 31.3391 164.341Z" fill="#4464A5"/>
<path d="M366.911 207.99C369.092 206.025 371.887 204.866 374.82 204.972C381.167 205.2 391.252 206.568 395.957 212.617C403.106 221.808 401.574 228.191 400.468 235.766C399.362 243.34 400.984 257.128 403.492 262.915C406 268.702 403.787 276.362 394.085 273.809C384.383 271.256 391.702 264.277 392.213 249.809C392.724 235.341 384.639 233.128 382.085 232.873C379.532 232.618 375.645 233.639 378.95 247.852C382.255 262.065 379.191 269.043 371.957 268.873C364.723 268.703 362.766 260.703 367.617 250.83C372.468 240.958 372.213 227.936 362.681 226.49C353.149 225.043 351.915 235.511 354.085 247.384C356.255 259.256 353.545 266.916 344.241 264.235C334.936 261.554 337.745 257.852 342.341 252.363C346.937 246.874 346.086 244.15 344.213 242.576C342.341 241.002 336.766 241.555 333.873 244.491C330.979 247.427 319.405 246.363 321.916 239.002C324.427 231.64 329.703 237.938 341.32 234.108C352.937 230.278 350.129 220.129 343.682 217.64C337.235 215.151 330.342 220.512 325.044 219.81C319.746 219.108 317.628 208.93 329.06 208.115C340.491 207.3 348.47 206.406 356.959 209.598C361.675 211.369 364.941 209.766 366.911 207.99Z" fill="#446444"/>
<path d="M285.242 89.048C280.396 85.564 275.549 82.08 270.703 78.596C276.826 73.726 281.804 67.573 285.211 60.718C286.039 59.051 284.354 57.234 282.619 57.909C273.32 61.532 264.938 67.274 258.418 74.537C256.727 64.776 253.468 55.261 248.797 46.418C247.891 44.703 245.319 45.054 244.962 46.961C244.116 51.484 243.807 56.093 243.82 60.687C243.83 64.024 244.022 67.358 244.293 70.685C244.331 71.152 244.452 71.809 244.598 72.554C240.056 69.463 234.786 67.581 231.227 66.557C229.445 66.044 227.974 67.987 228.916 69.584C231.01 73.133 234.131 76.307 236.638 78.533C236.153 78.572 235.646 78.606 235.105 78.63C228.9 78.9 219.992 81.482 214.773 83.163C213.213 83.665 213.113 85.836 214.624 86.472C220.366 88.889 231.048 92.7 239.678 91.866L229.146 105.055C227.739 106.817 229.799 109.226 231.758 108.109C236.562 105.37 241.367 102.631 246.171 99.892C246.85 110.153 248.831 120.336 252.051 130.153C252.688 132.094 255.479 132.018 255.99 130.041C258.663 119.702 259.336 108.897 257.939 98.334C262.263 102.928 266.724 107.405 271.316 111.758C272.815 113.179 275.245 111.73 274.712 109.734C272.974 103.233 270.089 97.007 266.195 91.408C272.09 92.242 278.046 92.693 284.006 92.758C286.015 92.78 286.872 90.221 285.242 89.048Z" fill="#DCB82B"/>
<path d="M218.162 135.744C215.711 133.17 212.917 130.493 209.384 130.105C208.954 130.058 208.393 129.928 208.366 129.497C208.348 129.212 208.598 128.989 208.828 128.819C210.911 127.277 213.251 126.084 215.722 125.305C216.936 124.922 218.483 124.215 218.3 122.956C216.926 122.445 215.392 122.877 214.029 123.416C211.535 124.401 209.181 125.742 207.061 127.384C208.623 125.597 209.906 123.567 210.85 121.389C211.208 120.564 211.492 119.53 210.926 118.831C210.372 118.146 209.248 118.208 208.533 118.723C207.819 119.239 207.415 120.07 207.04 120.866C206.386 122.254 205.731 123.642 205.077 125.03C204.796 125.626 204.462 126.267 203.96 126.659C202.938 126.729 201.263 126.193 198.98 123.33C194.959 118.287 190.32 118.192 189.001 120.234C187.682 122.277 191.065 125.117 194.735 124.734C198.39 124.353 202.359 127.99 201.524 129.123C201.513 129.139 201.505 129.156 201.494 129.172C201.485 129.184 201.478 129.196 201.469 129.208C200.54 130.442 197.67 131.476 196.575 131.754C195.135 132.12 193.595 132.099 192.224 132.669C190.562 133.36 189.359 134.829 188.361 136.327C188.071 136.762 187.798 137.368 188.137 137.766C188.338 138.003 188.68 138.054 188.99 138.065C191.539 138.152 193.828 136.582 195.778 134.938C197.728 133.294 199.657 131.445 202.118 130.776C202.619 135.21 199.651 139.18 197.982 143.318C197.711 143.989 197.549 144.918 198.164 145.3C198.736 145.655 199.464 145.195 199.924 144.702C201.694 142.807 202.488 140.226 203.229 137.741C203.903 135.479 204.578 133.217 205.252 130.955C207.136 132.559 209.021 134.163 210.906 135.767C211.973 136.675 213.07 137.601 214.387 138.079C215.704 138.557 217.308 138.5 218.359 137.573C218.526 137.426 218.681 137.251 218.741 137.036C218.871 136.56 218.503 136.102 218.162 135.744Z" fill="#4464A5"/>
<path d="M168.723 358.574C160.254 333.95 137.139 332.642 120.569 335.296C104.444 337.879 92.1481 351.62 92.1191 367.95C92.1071 374.792 94.1961 382.119 100.297 388.957C119.823 410.841 182.511 398.659 168.723 358.574ZM111.96 380.733C108.146 376.458 106.841 371.879 106.848 367.602C106.866 357.395 114.552 348.806 124.631 347.191C134.989 345.532 149.437 346.35 154.731 361.741C163.348 386.797 124.165 394.411 111.96 380.733Z" fill="#4464A5"/>
<path d="M14.0781 362.784C19.0701 364.979 24.5051 368.073 29.6171 366.175C36.0161 363.799 37.1071 354.038 32.3841 349.11C26.7491 343.23 16.2331 343.394 11.8321 336.542C9.12105 332.321 10.0021 326.166 13.7891 322.875C17.5761 319.585 23.7931 319.57 27.5951 322.844C31.0941 325.857 32.8591 331.268 37.3591 332.303C42.8241 333.56 47.1411 326.624 46.0321 321.126C44.9231 315.629 40.6761 311.419 37.3171 306.928C25.4291 291.036 24.2181 267.906 34.3801 250.859C36.2041 246.8 40.7401 245.863 43.3371 249.717C48.0251 255.277 49.8851 263.107 48.1971 270.181C47.0311 275.069 44.2731 279.726 44.6721 284.736C45.2041 291.421 51.1161 296.394 53.2381 302.756C54.1481 305.487 54.5521 308.758 56.9621 310.333C61.0531 313.006 66.1431 307.998 67.1141 303.209C67.8321 297.799 71.1011 290.953 75.9881 295.906C79.7471 299.144 83.899 303.737 82.174 308.389C80.101 313.982 72.0571 313.65 67.0851 316.945C62.1591 320.21 60.8111 327.567 63.7441 332.698C66.6771 337.829 73.1541 340.428 78.9731 339.4C84.7931 338.372 89.77 334.094 92.331 328.767C95.503 322.169 95.2241 314.36 98.1541 307.652C99.4411 304.706 101.84 301.743 105.054 301.702C106.911 301.679 108.657 302.675 109.984 303.975C114.169 308.073 114.593 314.892 112.568 320.388C110.543 325.884 106.521 330.371 102.589 334.713C95.0431 343.044 87.2501 351.566 77.1861 356.572C73.5441 358.384 69.595 359.742 66.493 362.373C63.391 365.004 61.3061 369.434 62.8831 373.184C64.8101 377.764 70.9381 378.866 75.7971 377.826C88.4591 375.116 96.784 363.492 105.624 354.03C106.638 352.945 107.936 351.786 109.398 352.047C110.514 352.246 111.31 353.224 111.907 354.188C116.764 362.034 114.273 373.53 106.604 378.662C95.1231 386.345 75.5691 386.929 62.1361 389.413C53.1371 391.077 43.9221 392.688 34.8221 390.86C25.4571 388.978 14.3061 384.243 6.42105 379.004C-5.73095 370.933 -0.892943 356.202 14.0781 362.784Z" fill="#C34638"/>
</g>
<defs>
<clipPath id="clip0_104_85">
<rect width="404" height="400" fill="white"/>
</clipPath>
</defs>
</svg>
