<svg width="220" height="171" viewBox="0 0 220 171" fill="none" xmlns="http://www.w3.org/2000/svg">
<path d="M164.895 134.588C164.493 134.095 163.685 127.191 162.953 127.246C162.218 127.303 161.578 134.15 161.235 134.601C160.546 135.505 155.511 136.145 155.552 137.024C155.594 137.9 160.538 138.313 161.237 139.168C161.627 139.645 162.447 146.568 163.18 146.514C163.914 146.46 164.542 139.633 164.899 139.165C165.563 138.291 170.637 137.617 170.596 136.736C170.557 135.856 165.568 135.415 164.895 134.588Z" fill="white"/>
<path d="M50.0662 57.1939C49.6632 56.7019 48.8552 49.7979 48.1232 49.8529C47.3892 49.9099 46.7492 56.7569 46.4062 57.2079C45.7172 58.1119 40.6812 58.7519 40.7232 59.6289C40.7652 60.5049 45.7082 60.9179 46.4082 61.7739C46.7982 62.2509 47.6172 69.1739 48.3512 69.1199C49.0852 69.0649 49.7122 62.2379 50.0692 61.7699C50.7342 60.8969 55.8072 60.2219 55.7662 59.3409C55.7262 58.4619 50.7382 58.0199 50.0662 57.1939Z" fill="white"/>
<path d="M49.4812 151.385C44.4462 153.767 38.6172 154.588 33.0882 154.517C30.2852 154.482 27.5022 154.101 24.8482 153.182C22.7692 152.462 20.3632 150.964 19.4712 148.841C19.3342 148.517 19.2402 148.171 19.1752 147.812C20.9862 148.088 22.8492 147.966 24.4852 147.366C26.0552 146.791 27.5242 145.739 28.2292 144.18C29.1422 142.159 28.7562 140.098 27.9062 138.127C26.9412 135.889 24.4462 134.93 22.2162 135.787C19.9782 136.647 18.2382 138.559 17.0232 140.573C16.6412 141.206 16.3242 141.909 16.0732 142.647C15.4812 142.224 14.9462 141.725 14.5252 141.155C12.2952 138.129 12.6212 133.638 13.0442 130.04C13.2162 128.571 13.5302 126.935 14.0542 125.371C17.1742 126.442 20.8102 125.881 23.6342 123.901C25.2952 122.737 26.8782 121.099 26.9922 118.968C27.1342 116.322 24.2392 115.415 22.1672 115.154C18.1652 114.651 14.7842 116.819 12.6392 119.955C12.0762 119.231 11.6422 118.394 11.3332 117.524C9.97624 113.71 10.9662 110.084 12.5352 106.423C12.5512 106.389 12.5662 106.354 12.5812 106.321C14.7692 107.266 17.2242 107.546 19.6602 106.887C21.9712 106.263 24.4032 104.948 25.8112 102.966C27.3462 100.803 26.7802 98.2559 24.8802 96.5409C21.3432 93.3499 16.6182 94.7029 13.6102 97.8049C12.7032 98.7409 11.8982 99.7909 11.1852 100.913C10.9632 100.692 10.7512 100.46 10.5512 100.223C8.49924 97.7909 8.31224 94.4569 9.11824 91.5189C10.6292 86.0159 16.0092 79.6279 22.1862 79.8089C24.5822 79.8789 24.5762 76.1639 22.1862 76.0939C16.6112 75.9309 11.8852 79.7709 8.74024 84.0289C5.57324 88.3169 3.76724 94.2169 5.83024 99.3569C6.59924 101.274 7.84024 102.975 9.38024 104.305C8.61424 106.032 8.01624 107.83 7.56724 109.588C6.44024 113.996 6.94024 118.881 9.91524 122.502C10.2052 122.856 10.5162 123.179 10.8422 123.476C9.48424 126.995 9.01624 130.921 9.11624 134.641C9.23024 138.958 10.3412 142.895 13.8732 145.622C14.3432 145.985 14.8572 146.305 15.3982 146.588C15.3922 147 15.4072 147.407 15.4442 147.802C15.7072 150.58 17.3842 152.689 19.4582 154.43C23.6072 157.918 30.0792 158.374 35.2502 158.214C40.7642 158.045 46.3572 156.96 51.3572 154.595C53.5212 153.569 51.6352 150.367 49.4812 151.385ZM15.7492 100.972C16.7982 99.7299 18.3282 98.5269 19.5312 98.3939C20.6872 98.2669 23.0712 99.0429 23.0162 100.425C23.0202 100.337 22.8662 100.746 22.7432 100.902C22.4712 101.247 22.1292 101.565 21.7752 101.823C20.8382 102.507 19.7772 102.977 18.6712 103.304C17.1532 103.754 15.6502 103.586 14.2752 103.022C14.7212 102.303 15.2082 101.613 15.7492 100.972ZM17.8602 119.76C19.2482 118.834 21.5032 118.392 23.0892 119.074C23.1352 119.095 23.1742 119.114 23.2082 119.134C22.8922 119.754 22.3882 120.23 21.7592 120.693C19.9852 122 18.0032 122.535 15.8772 122.082C15.7992 122.065 15.7262 122.044 15.6502 122.023C16.2572 121.123 16.9852 120.343 17.8602 119.76ZM21.9672 140.285C22.2902 139.974 22.6372 139.726 23.0192 139.494C23.3902 139.27 23.7002 139.171 23.9412 139.16C24.2222 139.146 24.0662 139.112 24.2692 139.3C24.5902 139.597 24.7252 140.074 24.8542 140.482C24.9822 140.882 25.0502 141.238 25.0642 141.393C25.0792 141.575 25.0732 141.758 25.0672 141.941C25.0642 141.967 25.0622 141.989 25.0602 142.01C25.0412 142.103 25.0222 142.197 24.9962 142.288C24.9872 142.325 24.9122 142.514 24.8922 142.576C24.8402 142.674 24.7832 142.771 24.7252 142.865C24.7112 142.886 24.7012 142.901 24.6932 142.917C24.6762 142.936 24.6552 142.958 24.6262 142.991C24.5212 143.112 24.3992 143.219 24.2812 143.327C24.2692 143.338 24.2612 143.345 24.2522 143.354C24.2272 143.367 24.1892 143.391 24.1322 143.43C23.9922 143.525 23.8432 143.605 23.6942 143.685C23.3652 143.862 23.3622 143.851 22.8112 144.005C21.7962 144.289 20.6652 144.286 19.5152 144.07C19.6762 143.568 19.8762 143.095 20.1032 142.673C20.5862 141.77 21.2282 140.993 21.9672 140.285Z" fill="#074785"/>
<path d="M173.597 130.844C173.597 130.844 174.442 110.039 161.211 102.003C147.981 93.9668 143.401 76.6458 143.401 76.6458C142.657 73.6748 142.286 71.4448 142.41 68.4728C142.781 61.7858 146.125 57.3278 149.717 51.8798C152.936 46.9258 152.069 38.8768 150.211 33.4288C148.231 27.8558 140.057 22.4078 135.971 29.5888C134.734 31.6948 134.981 34.7908 134.734 37.1438C134.362 40.2398 133.742 42.8398 131.514 45.3168C128.541 48.6598 118.758 51.5078 114.548 49.1548C112.794 48.1528 111.772 45.8008 110.19 44.4488C109.767 43.9098 109.223 43.5168 108.344 43.4588C108.175 43.4468 108.013 43.4498 107.855 43.4578C107.697 43.4498 107.536 43.4468 107.366 43.4588C106.488 43.5168 105.944 43.9098 105.521 44.4488C103.939 45.7998 102.916 48.1518 101.163 49.1548C96.9522 51.5078 87.1702 48.6598 84.1982 45.3168C81.9692 42.8398 81.3492 40.2398 80.9782 37.1438C80.7302 34.7908 80.9782 31.6948 79.7402 29.5888C75.6532 22.4068 67.4802 27.8558 65.4992 33.4288C63.6422 38.8778 62.7752 46.9258 65.9952 51.8798C69.5862 57.3278 72.9292 61.7858 73.3012 68.4728C73.4252 71.4448 73.0532 73.6748 72.3102 76.6458C72.3102 76.6458 67.7312 93.9668 54.5012 102.003C41.2712 110.04 42.1142 130.844 42.1142 130.844C42.1142 130.844 42.1932 138.104 37.9682 139.429L98.5182 149.782L107.857 148.462L117.197 149.782L177.746 139.429C173.517 138.105 173.597 130.844 173.597 130.844Z" fill="#F9D555"/>
<path d="M183.358 158.826C183.358 163.049 179.911 166.834 175.695 167.191C131.219 170.96 86.5052 170.96 42.0292 167.191C37.8132 166.835 34.3672 163.048 34.3672 158.826C34.3672 153.945 34.3672 149.063 34.3672 144.18C34.3672 139.958 37.8132 136.832 42.0292 137.189C86.5052 140.958 131.22 140.958 175.695 137.189C179.911 136.833 183.358 139.957 183.358 144.18C183.358 149.063 183.358 153.945 183.358 158.826Z" fill="#F1854F"/>
<path d="M183.358 20.263C162.363 6.301 139.672 0 106.863 0C74.0542 0 57.5362 6.301 36.5412 20.263C15.5472 34.224 4.9502 74.401 4.9502 74.401L60.5032 80.799C60.5032 80.799 62.0982 54.054 67.2852 47.388C73.3352 39.615 107.719 39.422 107.719 39.422L107.716 39.337C111.602 39.134 146.638 37.512 152.351 44.852C157.539 51.518 159.133 78.262 159.133 78.262L214.685 71.865C214.685 71.865 204.353 34.225 183.358 20.263Z" fill="#F9D555"/>
<path d="M154.175 77.9088C153.536 82.0068 157.078 85.8858 162.068 86.2088C179.164 87.3258 196.366 85.7938 212.996 81.6728C217.847 80.4728 220.65 76.0298 219.297 72.1098C219.162 71.7048 219.027 71.3008 218.895 70.8978C217.542 66.9698 213.02 64.8328 208.782 65.8768C193.97 69.5468 178.65 70.9128 163.423 69.9168C159.069 69.6388 154.998 72.5398 154.359 76.6448C154.297 77.0658 154.236 77.4878 154.175 77.9088Z" fill="#F1854F"/>
<path d="M108.862 70.6089C89.9982 70.6089 74.7042 83.2719 74.7042 98.8929C74.7042 114.515 89.9982 127.178 108.862 127.178C127.726 127.178 143.02 114.514 143.02 98.8929C143.02 83.2729 127.726 70.6089 108.862 70.6089ZM108.862 112.116C100.044 112.116 92.8942 106.196 92.8942 98.8929C92.8942 91.5909 100.043 85.6709 108.862 85.6709C117.681 85.6709 124.83 91.5909 124.83 98.8929C124.83 106.196 117.682 112.116 108.862 112.116Z" fill="#FD6085"/>
<path d="M80.3482 7.23682C73.7972 7.24182 69.7992 12.3318 69.5232 18.8108C69.3832 22.1278 74.3672 22.5838 74.5072 19.2538C74.6612 15.6238 76.0392 12.8438 79.7592 12.3958C83.8402 11.9048 85.9322 14.9528 85.4182 18.8428C84.9822 22.1428 89.9692 22.5698 90.4032 19.2848C91.2882 12.5768 86.9522 7.22982 80.3482 7.23682Z" fill="#074785"/>
<path d="M132.43 6.54506C125.882 6.74506 122.026 11.9501 121.929 18.4341C121.88 21.7541 126.874 22.0631 126.923 18.7291C126.977 15.0961 128.277 12.2771 131.982 11.7201C136.049 11.1091 138.224 14.0961 137.819 17.9971C137.474 21.3091 142.469 21.5891 142.813 18.2921C143.512 11.5621 139.029 6.34606 132.43 6.54506Z" fill="#074785"/>
<path d="M115.356 25.234C115.44 23.829 114.852 22.502 113.382 22.202C112.176 21.958 110.53 22.829 110.445 24.236C110.327 26.262 110.096 29.78 107.897 30.626C104.784 31.821 103.128 27.941 102.81 25.493C102.385 22.211 97.3922 22.569 97.8212 25.876C98.5322 31.347 101.888 36.274 107.731 35.863C112.996 35.494 115.078 29.937 115.356 25.234Z" fill="#074785"/>
<path d="M156.629 30.0769C156.934 34.5349 152.492 38.4809 146.713 38.8899C140.934 39.3019 136.002 36.0219 135.698 31.5649C135.394 27.1079 139.833 23.1619 145.613 22.7519C151.392 22.3389 156.325 25.6189 156.629 30.0769Z" fill="#FD6085"/>
<path d="M76.8782 31.253C77.1822 35.71 72.7432 39.655 66.9632 40.068C61.1852 40.477 56.2512 37.199 55.9482 32.741C55.6422 28.285 60.0832 24.338 65.8642 23.927C71.6432 23.515 76.5752 26.795 76.8782 31.253Z" fill="#FD6085"/>
<path d="M65.4612 79.9229C66.1012 84.0209 62.5582 87.9019 57.5682 88.2239C40.4722 89.3409 23.2702 87.8089 6.64121 83.6879C1.78821 82.4879 -1.01279 78.0459 0.340206 74.1249C0.474206 73.7199 0.609206 73.3159 0.742206 72.9109C2.09621 68.9839 6.61821 66.8469 10.8532 67.8909C25.6652 71.5619 40.9852 72.9259 56.2122 71.9309C60.5662 71.6519 64.6382 74.5529 65.2762 78.6589C65.3402 79.0809 65.4002 79.5029 65.4612 79.9229Z" fill="#F1854F"/>
<path d="M88.2032 95.4272C88.2032 97.8882 86.2072 99.8852 83.7452 99.8852C81.2832 99.8852 79.2872 97.8882 79.2872 95.4272C79.2872 92.9662 81.2832 90.9692 83.7452 90.9692C86.2072 90.9692 88.2032 92.9652 88.2032 95.4272Z" fill="#FFA4AC"/>
<path d="M92.4212 108.781C92.4212 111.243 90.4252 113.239 87.9632 113.239C85.5012 113.239 83.5052 111.244 83.5052 108.781C83.5052 106.319 85.5012 104.323 87.9632 104.323C90.4252 104.323 92.4212 106.319 92.4212 108.781Z" fill="#FFA4AC"/>
<path d="M105.312 118.462C105.312 120.924 103.316 122.92 100.854 122.92C98.3922 122.92 96.3962 120.924 96.3962 118.462C96.3962 116.001 98.3922 114.004 100.854 114.004C103.316 114.004 105.312 116.001 105.312 118.462Z" fill="#FFA4AC"/>
<path d="M121.328 118.462C121.328 120.924 119.332 122.92 116.87 122.92C114.408 122.92 112.412 120.924 112.412 118.462C112.412 116.001 114.408 114.004 116.87 114.004C119.332 114.004 121.328 116.001 121.328 118.462Z" fill="#FFA4AC"/>
<path d="M135.917 108.781C135.917 111.243 133.922 113.239 131.459 113.239C128.998 113.239 127.002 111.244 127.002 108.781C127.002 106.319 128.998 104.323 131.459 104.323C133.922 104.323 135.917 106.319 135.917 108.781Z" fill="#FFA4AC"/>
<path d="M138.437 95.4272C138.437 97.8882 136.441 99.8852 133.979 99.8852C131.518 99.8852 129.521 97.8882 129.521 95.4272C129.521 92.9662 131.518 90.9692 133.979 90.9692C136.441 90.9692 138.437 92.9652 138.437 95.4272Z" fill="#FFA4AC"/>
<path d="M127.762 81.7778C127.762 84.2398 125.767 86.2358 123.304 86.2358C120.842 86.2358 118.846 84.2398 118.846 81.7778C118.846 79.3148 120.842 77.3198 123.304 77.3198C125.767 77.3198 127.762 79.3158 127.762 81.7778Z" fill="#FFA4AC"/>
<path d="M112.162 78.103C112.162 80.564 110.166 82.561 107.704 82.561C105.242 82.561 103.246 80.565 103.246 78.103C103.246 75.641 105.242 73.645 107.704 73.645C110.166 73.645 112.162 75.641 112.162 78.103Z" fill="#FFA4AC"/>
<path d="M96.8642 81.7778C96.8642 84.2398 94.8682 86.2358 92.4062 86.2358C89.9442 86.2358 87.9482 84.2398 87.9482 81.7778C87.9482 79.3148 89.9442 77.3198 92.4062 77.3198C94.8682 77.3198 96.8642 79.3158 96.8642 81.7778Z" fill="#FFA4AC"/>
<path fill-rule="evenodd" clip-rule="evenodd" d="M103.812 144.113C99.7892 143.316 98.3902 149.542 102.574 150.373C106.789 151.15 107.868 144.863 103.812 144.113Z" fill="white"/>
<path fill-rule="evenodd" clip-rule="evenodd" d="M152.997 143.935C140.534 145.318 128.063 145.868 115.704 145.091C111.693 144.814 111.114 151.019 115.286 151.307C127.999 152.106 140.829 151.55 153.639 150.13C157.86 149.635 157.06 143.455 152.997 143.935Z" fill="white"/>
<path fill-rule="evenodd" clip-rule="evenodd" d="M165.5 141.975C161.426 142.357 161.812 148.58 166.04 148.187C170.287 147.736 169.596 141.537 165.5 141.975Z" fill="white"/>
<path fill-rule="evenodd" clip-rule="evenodd" d="M163.016 73.8579C160.812 73.4389 160.073 76.8489 162.364 77.2869C164.671 77.6939 165.236 74.2509 163.016 73.8579Z" fill="#FFA4AC"/>
<path fill-rule="evenodd" clip-rule="evenodd" d="M189.914 73.5579C183.104 74.3659 176.285 74.7179 169.522 74.3419C167.329 74.2079 167.037 77.6049 169.32 77.7439C176.276 78.1289 183.291 77.7719 190.291 76.9429C192.598 76.6559 192.135 73.2789 189.914 73.5579Z" fill="#FFA4AC"/>
<path fill-rule="evenodd" clip-rule="evenodd" d="M18.2852 64.9391C22.3492 66.1041 24.1572 59.8001 20.0922 58.6341C16.0252 57.4691 14.2182 63.7741 18.2852 64.9391Z" fill="white"/>
<path fill-rule="evenodd" clip-rule="evenodd" d="M58.5642 19.57C62.6302 20.735 64.4372 14.432 60.3722 13.266C56.3082 12.101 54.4992 18.404 58.5642 19.57Z" fill="white"/>
<path fill-rule="evenodd" clip-rule="evenodd" d="M24.4592 52.904C29.5002 40.342 38.2732 27.967 51.2222 22.772C54.2282 21.568 52.2352 16.967 49.2382 18.17C35.0812 23.849 25.3212 37.297 19.8012 51.053C18.5962 54.054 23.2552 55.903 24.4592 52.904Z" fill="white"/>
<path fill-rule="evenodd" clip-rule="evenodd" d="M202.149 63.758C198.085 64.923 196.278 58.618 200.342 57.453C204.409 56.288 206.216 62.591 202.149 63.758Z" fill="white"/>
<path fill-rule="evenodd" clip-rule="evenodd" d="M161.869 18.3889C157.803 19.5549 155.996 13.2509 160.062 12.0839C164.127 10.9189 165.934 17.2229 161.869 18.3889Z" fill="white"/>
<path fill-rule="evenodd" clip-rule="evenodd" d="M195.976 51.7228C190.935 39.1608 182.161 26.7858 169.212 21.5918C166.207 20.3858 168.2 15.7858 171.197 16.9888C185.354 22.6678 195.114 36.1148 200.633 49.8708C201.838 52.8728 197.179 54.7228 195.976 51.7228Z" fill="white"/>
<path d="M153.571 119.436C153.248 119.04 152.599 113.501 152.012 113.545C151.422 113.592 150.91 119.084 150.634 119.446C150.081 120.171 146.042 120.685 146.075 121.389C146.108 122.092 150.075 122.423 150.636 123.109C150.949 123.492 151.606 129.047 152.195 129.003C152.784 128.959 153.288 123.482 153.574 123.107C154.108 122.407 158.178 121.866 158.145 121.158C158.113 120.452 154.11 120.098 153.571 119.436Z" fill="white"/>
<path d="M63.6542 111.07C63.3312 110.674 62.6832 105.135 62.0962 105.179C61.5062 105.226 60.9922 110.718 60.7182 111.081C60.1652 111.806 56.1252 112.32 56.1572 113.024C56.1912 113.727 60.1582 114.058 60.7192 114.744C61.0322 115.127 61.6902 120.682 62.2782 120.638C62.8672 120.594 63.3712 115.117 63.6572 114.742C64.1902 114.041 68.2612 113.5 68.2282 112.793C68.1962 112.086 64.1942 111.732 63.6542 111.07Z" fill="white"/>
<path d="M74.8102 126.827C72.4182 126.69 72.2062 130.399 74.5982 130.536C76.9902 130.673 77.2022 126.964 74.8102 126.827Z" fill="white"/>
<path d="M124.691 59.4901C122.299 59.3521 122.087 63.0621 124.478 63.1981C126.871 63.3361 127.083 59.6271 124.691 59.4901Z" fill="white"/>
<path d="M85.6482 56.2938C83.2572 56.1558 83.0442 59.8648 85.4362 60.0018C87.8272 60.1388 88.0402 56.4298 85.6482 56.2938Z" fill="white"/>
<path d="M48.3512 54.4358C45.9592 54.2988 45.7472 58.0078 48.1392 58.1448C50.5312 58.2808 50.7432 54.5728 48.3512 54.4358Z" fill="white"/>
<path d="M165.888 51.8841C163.496 51.7471 163.284 55.4551 165.676 55.5931C168.066 55.7301 168.279 52.0211 165.888 51.8841Z" fill="white"/>
</svg>
