<svg width="205" height="182" viewBox="0 0 205 182" fill="none" xmlns="http://www.w3.org/2000/svg">
<path d="M101.455 162.04L97.2348 162.533C97.3098 161.89 97.3188 161.222 97.2468 160.536L85.3298 46.7665C84.7958 41.6725 80.1908 37.5035 75.0968 37.5035H9.18782L9.77282 33.7925L3.34882 39.0865C3.09282 39.2725 2.84882 39.4735 2.61882 39.6875L2.60082 39.7025H2.60182C0.770823 41.4055 -0.245177 43.9435 0.0508226 46.7665L11.9678 160.536C12.5018 165.63 17.1068 169.798 22.2008 169.798H88.9518C91.2778 169.798 93.3168 168.927 94.7988 167.498V167.501L101.455 162.04Z" fill="#F9D555"/>
<path d="M194.888 153.045C194.931 153.01 194.973 152.975 195.015 152.94L202.036 147.153L197.932 146.919C197.949 146.485 197.937 146.042 197.89 145.592L185.973 31.8225C185.439 26.7275 180.834 22.5595 175.74 22.5595H109.567L110.385 18.8735L104.002 24.1345C103.737 24.3265 103.485 24.5345 103.247 24.7575L103.232 24.7705H103.233C101.411 26.4735 100.399 29.0055 100.694 31.8235L112.612 145.592C113.145 150.687 117.751 154.855 122.845 154.855H189.595C191.633 154.855 193.452 154.187 194.868 153.06V153.062L194.888 153.045Z" fill="#FFA4AC"/>
<path d="M98.0698 7.98236C97.5178 7.44636 96.4078 -0.0596422 95.4008 0.000357771C94.3908 0.0633578 93.5118 7.50536 93.0408 7.99636C92.0948 8.98036 85.1748 9.67635 85.2308 10.6304C85.2888 11.5824 92.0838 12.0314 93.0438 12.9614C93.5798 13.4794 94.7068 21.0064 95.7138 20.9474C96.7228 20.8874 97.5848 13.4654 98.0758 12.9574C98.9898 12.0074 105.962 11.2744 105.907 10.3164C105.85 9.36036 98.9948 8.88136 98.0698 7.98236Z" fill="#29AEFD"/>
<path d="M125.093 168.49C124.54 167.954 123.431 160.448 122.424 160.508C121.414 160.57 120.535 168.013 120.064 168.502C119.119 169.486 112.198 170.183 112.254 171.137C112.311 172.088 119.107 172.538 120.067 173.468C120.603 173.986 121.73 181.513 122.738 181.454C123.747 181.394 124.609 173.973 125.099 173.463C126.013 172.514 132.986 171.781 132.93 170.823C132.873 169.867 126.018 169.388 125.093 168.49Z" fill="#29AEFD"/>
<path d="M103.937 155.038C104.47 160.134 100.74 164.302 95.6438 164.302H28.8928C23.7978 164.302 19.1928 160.134 18.6598 155.038L6.74179 41.2703C6.20779 36.1753 9.93979 32.0073 15.0338 32.0073H81.7848C86.8798 32.0073 91.4848 36.1753 92.0178 41.2703L103.937 155.038Z" fill="#F1854F"/>
<path d="M94.6028 144.23C94.7778 145.899 93.5178 147.253 91.7888 147.253H29.1768C27.4478 147.253 25.9038 145.898 25.7288 144.23L15.4288 45.8985C15.2538 44.2295 16.5138 42.8755 18.2428 42.8755H80.8538C82.5828 42.8755 84.1268 44.2295 84.3018 45.8985L94.6028 144.23Z" fill="#FFA4AC"/>
<path d="M71.4279 156.198C71.6079 157.903 70.4559 159.286 68.8579 159.286H54.6279C53.0289 159.286 51.5899 157.903 51.4099 156.198L51.2159 154.344C51.0369 152.638 52.1879 151.256 53.7869 151.256H68.0159C69.6149 151.256 71.0549 152.638 71.2329 154.344L71.4279 156.198Z" fill="#074785"/>
<path fill-rule="evenodd" clip-rule="evenodd" d="M57.9878 38.0734C58.0838 38.9964 57.4138 39.7454 56.4898 39.7454H41.9518C41.0278 39.7454 40.2008 38.9964 40.1048 38.0734C40.0078 37.1494 40.6778 36.4004 41.6008 36.4004H56.1398C57.0628 36.3994 57.8908 37.1494 57.9878 38.0734Z" fill="#F9D555"/>
<path d="M204.58 140.094C205.113 145.189 201.383 149.358 196.287 149.358H129.536C124.441 149.358 119.836 145.189 119.303 140.094L107.385 26.3255C106.852 21.2305 110.583 17.0615 115.679 17.0615H182.429C187.524 17.0615 192.128 21.2305 192.662 26.3255L204.58 140.094Z" fill="#FD6085"/>
<path d="M195.246 129.284C195.421 130.954 194.161 132.308 192.432 132.308H129.821C128.092 132.308 126.549 130.953 126.374 129.284L116.073 30.9532C115.898 29.2842 117.157 27.9302 118.887 27.9302H181.499C183.226 27.9302 184.771 29.2842 184.945 30.9532L195.246 129.284Z" fill="#F9D555"/>
<path d="M172.072 141.254C172.25 142.959 171.099 144.342 169.501 144.342H155.271C153.672 144.342 152.232 142.959 152.052 141.254L151.859 139.399C151.681 137.694 152.832 136.311 154.43 136.311H168.66C170.259 136.311 171.699 137.694 171.878 139.399L172.072 141.254Z" fill="#074785"/>
<path fill-rule="evenodd" clip-rule="evenodd" d="M158.63 23.1276C158.728 24.0516 158.056 24.8006 157.132 24.8006H142.594C141.671 24.8006 140.845 24.0516 140.747 23.1276C140.649 22.2036 141.32 21.4556 142.244 21.4556H156.782C157.706 21.4556 158.533 22.2036 158.63 23.1276Z" fill="#FFA4AC"/>
<path fill-rule="evenodd" clip-rule="evenodd" d="M73.9628 105.41C74.2858 108.177 77.7778 110.38 81.7598 110.331C85.7428 110.282 88.7078 107.999 88.3838 105.23C88.0588 102.463 84.5688 100.26 80.5868 100.308C76.6038 100.359 73.6388 102.641 73.9628 105.41Z" fill="#FD6085"/>
<path fill-rule="evenodd" clip-rule="evenodd" d="M23.8618 106.028C24.1858 108.795 27.6748 110.999 31.6568 110.95C35.6398 110.901 38.6058 108.617 38.2808 105.849C37.9558 103.082 34.4658 100.878 30.4848 100.929C26.5028 100.979 23.5368 103.26 23.8618 106.028Z" fill="#FD6085"/>
<path d="M58.9848 86.7832C59.7958 93.7122 66.1868 99.2572 73.2618 99.1692C80.3358 99.0822 85.4118 93.3952 84.6008 86.4652C83.7898 79.5372 77.3978 73.9902 70.3238 74.0772C63.2498 74.1662 58.1738 79.8542 58.9848 86.7832Z" fill="white"/>
<path fill-rule="evenodd" clip-rule="evenodd" d="M84.6008 86.4662C85.4118 93.3952 80.3358 99.0832 73.2618 99.1702C72.9508 99.1752 72.6408 99.1632 72.3298 99.1472C65.9758 88.0542 68.9968 79.2142 72.1158 74.1812C78.4458 74.9502 83.8588 80.1292 84.6008 86.4662Z" fill="#074785"/>
<path d="M23.2678 87.1704C24.0788 94.0994 30.4698 99.6454 37.5448 99.5584C44.6188 99.4714 49.6948 93.7824 48.8818 86.8544C48.0718 79.9254 41.6788 74.3784 34.6058 74.4654C27.5318 74.5544 22.4558 80.2414 23.2678 87.1704Z" fill="white"/>
<path fill-rule="evenodd" clip-rule="evenodd" d="M48.8818 86.8544C49.6948 93.7824 44.6187 99.4714 37.5447 99.5584C37.2317 99.5624 36.9217 99.5514 36.6127 99.5344C30.2587 88.4414 33.2777 79.6024 36.3987 74.5684C42.7287 75.3384 48.1398 80.5164 48.8818 86.8544Z" fill="#074785"/>
<path d="M79.8378 73.0002C80.9658 72.9852 81.8108 72.1292 81.9398 70.8682C82.0878 69.4212 81.3008 68.0292 80.0268 67.4832C76.9518 66.1672 73.6908 65.5092 70.3328 65.5282C68.8788 65.5462 67.9318 66.7672 68.1128 68.3662C68.2958 69.9782 69.5258 71.1882 70.9738 71.1802C73.6878 71.1672 76.2488 71.6902 78.8018 72.7822C79.1488 72.9322 79.4968 73.0042 79.8378 73.0002Z" fill="#074785"/>
<path d="M37.6688 71.2891C38.6358 70.8051 39.0048 69.6361 38.5848 68.3821C38.1008 66.9401 36.8318 65.9451 35.4988 65.9571C32.2858 65.9901 29.1888 66.7271 26.2908 68.1461C25.0398 68.7711 24.7378 70.3291 25.5688 71.7781C26.4098 73.2361 27.9858 73.8751 29.2338 73.2621C31.5758 72.1151 34.0108 71.5421 36.6798 71.5151C37.0418 71.5131 37.3748 71.4371 37.6688 71.2891Z" fill="#074785"/>
<path d="M49.7859 97.9361C49.5219 95.8671 52.7199 95.7671 52.9859 97.8401C53.2239 99.6951 53.0019 103.639 55.4809 104.201C58.4429 104.874 57.9009 100.388 57.5949 98.6671C57.2279 96.6011 60.4289 96.5111 60.7949 98.5701C61.4779 102.414 60.9609 107.28 56.2909 107.441C50.9359 107.626 50.2769 101.766 49.7859 97.9361Z" fill="#074785"/>
<path d="M46.0298 83.5272C46.7588 85.8812 47.0208 88.2182 46.3238 90.4662C46.0108 91.4782 44.4139 90.7202 44.7239 89.7182C45.2829 87.9112 45.0579 85.9452 44.4739 84.0532C44.1479 82.9972 45.6978 82.4562 46.0298 83.5272Z" fill="white"/>
<path d="M45.5649 93.1669C45.4539 93.3999 45.3509 93.6349 45.2399 93.8689C45.0509 94.2689 44.6059 94.4709 44.1459 94.2559C43.7339 94.0609 43.4509 93.5199 43.6439 93.1219C43.7539 92.8869 43.8579 92.6509 43.9679 92.4189C44.1569 92.0179 44.6049 91.8179 45.0619 92.0319C45.4729 92.2269 45.7559 92.7679 45.5649 93.1669Z" fill="white"/>
<path d="M44.3578 80.648C44.5838 81.074 44.3208 81.585 43.9268 81.715C43.4758 81.868 43.0298 81.599 42.8038 81.176C42.8108 81.184 42.8168 81.188 42.8258 81.196C42.4658 80.872 42.3488 80.362 42.6298 80.003C42.8888 79.673 43.4578 79.605 43.8188 79.931C44.0608 80.147 44.2108 80.37 44.3578 80.648Z" fill="white"/>
<path d="M42.8029 81.1829C42.7949 81.1719 42.7859 81.1619 42.7759 81.1509C42.7849 81.1589 42.7949 81.1679 42.8049 81.1759C42.9249 81.3989 42.8379 81.2339 42.8029 81.1829Z" fill="white"/>
<path d="M42.7759 81.1501C42.7299 81.0991 42.6779 81.0611 42.7759 81.1501Z" fill="white"/>
<path d="M42.8019 81.1738L42.8049 81.1758L42.8019 81.1738Z" fill="white"/>
<path d="M82.1798 83.0813C82.9068 85.4353 83.1698 87.7703 82.4728 90.0203C82.1598 91.0323 80.5638 90.2743 80.8738 89.2723C81.4328 87.4653 81.2078 85.4973 80.6228 83.6083C80.2958 82.5513 81.8458 82.0093 82.1798 83.0813Z" fill="white"/>
<path d="M81.7128 92.7213C81.6028 92.9533 81.4978 93.1913 81.3888 93.4233C81.1988 93.8233 80.7518 94.0243 80.2928 93.8083C79.8808 93.6153 79.5988 93.0753 79.7898 92.6773C79.9008 92.4423 80.0038 92.2043 80.1148 91.9743C80.3048 91.5713 80.7518 91.3713 81.2088 91.5873C81.6228 91.7783 81.9048 92.3223 81.7128 92.7213Z" fill="white"/>
<path d="M80.5068 80.2024C80.7328 80.6274 80.4708 81.1384 80.0758 81.2704C79.6248 81.4214 79.1798 81.1544 78.9528 80.7304C78.9618 80.7384 78.9658 80.7434 78.9758 80.7504C78.6148 80.4254 78.4968 79.9154 78.7798 79.5564C79.0388 79.2264 79.6078 79.1604 79.9678 79.4844C80.2088 79.7014 80.3578 79.9234 80.5068 80.2024Z" fill="white"/>
<path d="M78.9508 80.7366C78.9428 80.7266 78.9328 80.7146 78.9238 80.7046C78.9318 80.7136 78.9448 80.7226 78.9528 80.7306C79.0728 80.9536 78.9858 80.7886 78.9508 80.7366Z" fill="white"/>
<path d="M78.9238 80.7046C78.8788 80.6546 78.8278 80.6166 78.9238 80.7046Z" fill="white"/>
<path d="M78.9508 80.7275L78.9538 80.7305L78.9508 80.7275Z" fill="white"/>
<path fill-rule="evenodd" clip-rule="evenodd" d="M139.941 88.3095C140.427 91.0425 137.628 93.2705 133.69 93.2825C129.749 93.2955 126.164 91.0875 125.679 88.3525C125.193 85.6185 127.99 83.3905 131.929 83.3785C135.869 83.3665 139.457 85.5735 139.941 88.3095Z" fill="#FD6085"/>
<path fill-rule="evenodd" clip-rule="evenodd" d="M189.496 88.1586C189.981 90.8916 187.183 93.1206 183.246 93.1316C179.306 93.1446 175.72 90.9366 175.234 88.2006C174.749 85.4666 177.546 83.2406 181.485 83.2276C185.423 83.2166 189.009 85.4216 189.496 88.1586Z" fill="#FD6085"/>
<path d="M149.283 69.7053C150.499 76.5543 145.814 82.1203 138.818 82.1423C131.822 82.1643 125.164 76.6313 123.948 69.7813C122.732 62.9343 127.416 57.3663 134.413 57.3433C141.409 57.3233 148.066 62.8553 149.283 69.7053Z" fill="white"/>
<path fill-rule="evenodd" clip-rule="evenodd" d="M123.948 69.7817C125.164 76.6317 131.822 82.1647 138.818 82.1427C139.125 82.1427 139.428 82.1257 139.728 82.1047C142.763 71.0647 137.214 62.3907 132.677 57.4717C126.663 58.3277 122.834 63.5197 123.948 69.7817Z" fill="#074785"/>
<path d="M184.594 69.5447C185.81 76.3927 181.124 81.9616 174.128 81.9826C167.132 82.0036 160.474 76.4696 159.259 69.6216C158.042 62.7726 162.729 57.2037 169.724 57.1837C176.721 57.1627 183.378 62.6967 184.594 69.5447Z" fill="white"/>
<path fill-rule="evenodd" clip-rule="evenodd" d="M159.259 69.6216C160.474 76.4696 167.132 82.0036 174.128 81.9826C174.437 81.9816 174.739 81.9656 175.04 81.9436C178.072 70.9026 172.527 62.2296 167.987 57.3096C161.972 58.1676 158.146 63.3566 159.259 69.6216Z" fill="#074785"/>
<path d="M124.723 56.4257C123.607 56.4277 122.525 55.5967 122.031 54.3547C121.465 52.9287 121.835 51.5437 122.933 50.9857C125.581 49.6417 128.603 48.9427 131.915 48.9097C133.354 48.9047 134.642 50.0947 134.929 51.6757C135.218 53.2697 134.359 54.4817 132.929 54.4967C130.25 54.5247 127.878 55.0797 125.681 56.1957C125.382 56.3477 125.06 56.4247 124.723 56.4257Z" fill="#074785"/>
<path d="M165.781 54.0965C164.687 53.6345 163.984 52.4865 164.033 51.2425C164.091 49.8125 165.053 48.8105 166.369 48.8045C169.545 48.7865 172.813 49.4685 176.08 50.8235C177.495 51.4205 178.246 52.9525 177.848 54.3955C177.443 55.8475 176.078 56.5015 174.669 55.9155C172.026 54.8195 169.461 54.2925 166.822 54.3065C166.465 54.3095 166.115 54.2375 165.783 54.0975L165.781 54.0965Z" fill="#074785"/>
<path d="M161.592 80.5675C161.251 78.5225 158.069 78.4735 158.411 80.5205C158.716 82.3555 160.082 86.2425 157.803 86.8345C155.079 87.5425 154.31 83.1085 154.111 81.4085C153.871 79.3635 150.69 79.3245 150.927 81.3615C151.374 85.1645 153.299 89.9565 157.948 90.0435C163.279 90.1445 162.222 84.3545 161.592 80.5675Z" fill="#074785"/>
<path d="M161.103 66.2963C161.07 68.6293 161.491 70.9403 162.832 73.1463C163.435 74.1393 164.787 73.3693 164.191 72.3853C163.114 70.6103 162.762 68.6673 162.789 66.7923C162.803 65.7453 161.117 65.2343 161.103 66.2963Z" fill="white"/>
<path d="M164.367 75.7993C164.542 76.0273 164.714 76.2583 164.89 76.4873C165.193 76.8793 165.691 77.0713 166.081 76.8523C166.43 76.6543 166.55 76.1163 166.245 75.7263C166.068 75.4973 165.899 75.2663 165.723 75.0383C165.417 74.6453 164.92 74.4553 164.532 74.6733C164.183 74.8693 164.061 75.4093 164.367 75.7993Z" fill="white"/>
<path d="M161.912 63.4305C161.812 63.8535 162.221 64.3545 162.647 64.4765C163.135 64.6215 163.498 64.3485 163.597 63.9285C163.592 63.9355 163.587 63.9405 163.579 63.9475C163.841 63.6225 163.808 63.1175 163.425 62.7675C163.073 62.4455 162.494 62.3885 162.234 62.7135C162.06 62.9325 161.977 63.1545 161.912 63.4305Z" fill="white"/>
<path d="M163.601 63.9334C163.605 63.9234 163.611 63.9114 163.617 63.9014C163.612 63.9104 163.605 63.9194 163.597 63.9274C163.543 64.1494 163.582 63.9864 163.601 63.9334Z" fill="white"/>
<path d="M163.617 63.9016C163.687 63.8126 163.648 63.8506 163.617 63.9016Z" fill="white"/>
<path d="M163.599 63.9253L163.597 63.9283L163.599 63.9253Z" fill="white"/>
<path d="M125.349 66.4056C125.317 68.7376 125.738 71.0486 127.079 73.2566C127.681 74.2496 129.032 73.4766 128.436 72.4956C127.36 70.7206 127.009 68.7766 127.035 66.9026C127.05 65.8546 125.365 65.3436 125.349 66.4056Z" fill="white"/>
<path d="M128.613 75.9087C128.79 76.1367 128.961 76.3697 129.136 76.5967C129.44 76.9887 129.938 77.1797 130.328 76.9607C130.677 76.7637 130.799 76.2267 130.493 75.8367C130.315 75.6067 130.145 75.3747 129.97 75.1477C129.665 74.7537 129.166 74.5617 128.779 74.7827C128.427 74.9787 128.307 75.5197 128.613 75.9087Z" fill="white"/>
<path d="M126.159 63.5397C126.059 63.9627 126.467 64.4627 126.894 64.5877C127.382 64.7297 127.745 64.4587 127.844 64.0367C127.837 64.0457 127.835 64.0497 127.825 64.0567C128.088 63.7317 128.055 63.2267 127.672 62.8767C127.32 62.5547 126.741 62.4977 126.482 62.8237C126.306 63.0417 126.224 63.2637 126.159 63.5397Z" fill="white"/>
<path d="M127.846 64.0437C127.853 64.0327 127.859 64.0227 127.865 64.0107C127.859 64.0207 127.85 64.0287 127.845 64.0367C127.791 64.2597 127.829 64.0957 127.846 64.0437Z" fill="white"/>
<path d="M127.865 64.0108C127.933 63.9238 127.894 63.9608 127.865 64.0108Z" fill="white"/>
<path d="M127.845 64.0356L127.844 64.0376L127.845 64.0356Z" fill="white"/>
<path d="M148.232 107.527C147.988 107.289 147.496 103.964 147.049 103.989C146.602 104.017 146.212 107.315 146.003 107.533C145.583 107.968 142.517 108.277 142.541 108.7C142.567 109.121 145.577 109.321 146.005 109.733C146.241 109.962 146.741 113.297 147.188 113.271C147.634 113.246 148.017 109.957 148.235 109.731C148.64 109.31 151.73 108.984 151.705 108.561C151.68 108.138 148.642 107.925 148.232 107.527Z" fill="white"/>
<path d="M176.02 39.7095C175.776 39.4725 175.283 36.1465 174.837 36.1725C174.39 36.2005 173.999 39.4985 173.791 39.7165C173.372 40.1525 170.306 40.4605 170.33 40.8835C170.354 41.3055 173.366 41.5045 173.792 41.9165C174.029 42.1455 174.528 45.4815 174.976 45.4565C175.423 45.4305 175.804 42.1405 176.023 41.9145C176.427 41.4945 179.517 41.1685 179.494 40.7455C179.467 40.3205 176.43 40.1075 176.02 39.7095Z" fill="white"/>
<path d="M43.4988 122.355C43.2528 122.118 42.7618 118.791 42.3148 118.818C41.8668 118.845 41.4768 122.144 41.2688 122.361C40.8498 122.796 37.7828 123.106 37.8078 123.529C37.8318 123.949 40.8438 124.149 41.2698 124.561C41.5078 124.791 42.0058 128.126 42.4538 128.099C42.8998 128.075 43.2828 124.785 43.4998 124.559C43.9048 124.139 46.9948 123.814 46.9708 123.389C46.9468 122.967 43.9078 122.754 43.4988 122.355Z" fill="white"/>
<path d="M60.0078 61.5015C59.7628 61.2635 59.2708 57.9385 58.8248 57.9645C58.3758 57.9915 57.9868 61.2905 57.7778 61.5075C57.3598 61.9435 54.2928 62.2515 54.3178 62.6755C54.3428 63.0965 57.3538 63.2965 57.7798 63.7085C58.0168 63.9375 58.5158 67.2735 58.9628 67.2465C59.4088 67.2215 59.7918 63.9305 60.0088 63.7065C60.4138 63.2865 63.5038 62.9615 63.4798 62.5365C63.4558 62.1135 60.4168 61.9005 60.0078 61.5015Z" fill="white"/>
<path fill-rule="evenodd" clip-rule="evenodd" d="M24.9958 48.6495C21.9468 48.3955 21.5548 53.1245 24.6038 53.3775C27.6518 53.6285 28.0438 48.9025 24.9958 48.6495Z" fill="white"/>
<path fill-rule="evenodd" clip-rule="evenodd" d="M61.2188 48.8054C52.0908 48.6984 42.9598 48.7854 33.8308 48.6774C30.8448 48.6434 30.7878 53.2764 33.7748 53.3094C42.9038 53.4164 52.0338 53.3314 61.1618 53.4374C64.1488 53.4734 64.2058 48.8384 61.2188 48.8054Z" fill="white"/>
<path fill-rule="evenodd" clip-rule="evenodd" d="M70.3849 48.7655C67.4079 48.5175 67.0248 53.1355 70.0028 53.3825C72.9798 53.6285 73.3619 49.0125 70.3849 48.7655Z" fill="white"/>
<path fill-rule="evenodd" clip-rule="evenodd" d="M134.044 123.468C130.995 123.215 130.603 127.944 133.652 128.197C136.701 128.448 137.093 123.722 134.044 123.468Z" fill="white"/>
<path fill-rule="evenodd" clip-rule="evenodd" d="M170.267 123.624C161.138 123.517 152.009 123.604 142.879 123.495C139.893 123.462 139.836 128.094 142.823 128.128C151.952 128.234 161.082 128.149 170.21 128.255C173.198 128.292 173.255 123.657 170.267 123.624Z" fill="white"/>
<path fill-rule="evenodd" clip-rule="evenodd" d="M179.434 123.584C176.456 123.337 176.074 127.954 179.052 128.2C182.029 128.446 182.412 123.83 179.434 123.584Z" fill="white"/>
<path fill-rule="evenodd" clip-rule="evenodd" d="M13.6178 54.2472C13.5258 51.7102 9.59184 51.8532 9.68384 54.3912C9.77684 56.9282 13.7098 56.7852 13.6178 54.2472Z" fill="white"/>
<path fill-rule="evenodd" clip-rule="evenodd" d="M17.0629 84.1084C16.2499 76.5764 15.2779 69.0634 14.4659 61.5294C14.1999 59.0674 10.3779 59.4764 10.6439 61.9414C11.4569 69.4724 12.4269 76.9864 13.2409 84.5184C13.5059 86.9834 17.3309 86.5734 17.0629 84.1084Z" fill="white"/>
<path fill-rule="evenodd" clip-rule="evenodd" d="M17.9989 91.6571C17.9099 89.1791 14.0669 89.3201 14.1589 91.7991C14.2489 94.2741 18.0909 94.1341 17.9989 91.6571Z" fill="white"/>
<path fill-rule="evenodd" clip-rule="evenodd" d="M96.5759 111.941C96.4839 109.403 92.5489 109.547 92.6409 112.085C92.7349 114.621 96.6679 114.479 96.5759 111.941Z" fill="white"/>
<path fill-rule="evenodd" clip-rule="evenodd" d="M100.021 141.803C99.2079 134.271 98.2359 126.756 97.4239 119.224C97.1579 116.76 93.3359 117.171 93.6019 119.635C94.4149 127.167 95.3859 134.681 96.1989 142.212C96.4639 144.678 100.289 144.267 100.021 141.803Z" fill="white"/>
<path fill-rule="evenodd" clip-rule="evenodd" d="M100.958 149.351C100.867 146.874 97.0248 147.013 97.1158 149.492C97.2068 151.969 101.048 151.828 100.958 149.351Z" fill="white"/>
<path fill-rule="evenodd" clip-rule="evenodd" d="M114.79 37.6712C114.716 35.1332 110.78 35.2502 110.855 37.7882C110.931 40.3252 114.865 40.2082 114.79 37.6712Z" fill="white"/>
<path fill-rule="evenodd" clip-rule="evenodd" d="M118.031 67.5543C117.271 60.0173 116.349 52.4973 115.59 44.9593C115.34 42.4943 111.515 42.8783 111.764 45.3443C112.527 52.8813 113.446 60.4013 114.207 67.9383C114.455 70.4063 118.283 70.0203 118.031 67.5543Z" fill="white"/>
<path fill-rule="evenodd" clip-rule="evenodd" d="M118.917 75.1091C118.844 72.6311 115 72.7451 115.074 75.2231C115.148 77.7011 118.991 77.5871 118.917 75.1091Z" fill="white"/>
<path fill-rule="evenodd" clip-rule="evenodd" d="M197.134 88.4701C197.059 85.9331 193.124 86.0491 193.198 88.5871C193.275 91.1241 197.209 91.0071 197.134 88.4701Z" fill="white"/>
<path fill-rule="evenodd" clip-rule="evenodd" d="M200.376 118.353C199.614 110.816 198.693 103.296 197.933 95.758C197.684 93.292 193.859 93.676 194.108 96.142C194.87 103.68 195.79 111.2 196.552 118.737C196.798 121.205 200.626 120.819 200.376 118.353Z" fill="white"/>
<path fill-rule="evenodd" clip-rule="evenodd" d="M201.261 125.907C201.189 123.429 197.345 123.544 197.419 126.022C197.493 128.499 201.335 128.386 201.261 125.907Z" fill="white"/>
<path d="M45.3309 136.642H34.5089C31.1859 136.642 31.1859 141.795 34.5089 141.795H45.3309C48.6539 141.796 48.6539 136.642 45.3309 136.642Z" fill="#FD6085"/>
<path d="M88.2888 136.642H77.4688C74.1458 136.642 74.1458 141.795 77.4688 141.795H88.2888C91.6128 141.796 91.6128 136.642 88.2888 136.642Z" fill="#FD6085"/>
<path d="M58.7458 136.378C57.4358 136.441 56.0948 136.54 54.7888 136.403C53.3928 136.255 52.0438 136.865 51.7088 138.352C51.4288 139.6 52.2608 141.284 53.6588 141.432C55.4448 141.62 57.2018 141.612 58.9918 141.526C60.3948 141.459 61.5088 140.23 61.4418 138.829C61.3748 137.426 60.1468 136.311 58.7458 136.378Z" fill="#FD6085"/>
<path d="M87.4248 152.67C86.1158 152.732 84.7758 152.831 83.4688 152.694C82.0728 152.546 80.7228 153.155 80.3898 154.643C80.1088 155.892 80.9408 157.575 82.3398 157.721C84.1248 157.91 85.8808 157.901 87.6718 157.817C89.0748 157.75 90.1898 156.522 90.1218 155.12C90.0548 153.717 88.8288 152.602 87.4248 152.67Z" fill="#F9D555"/>
<path d="M139.499 137.153C138.19 137.216 136.849 137.315 135.543 137.176C134.148 137.03 132.797 137.639 132.464 139.126C132.184 140.374 133.014 142.057 134.412 142.204C136.198 142.393 137.955 142.385 139.746 142.3C141.148 142.233 142.265 141.005 142.196 139.602C142.128 138.199 140.903 137.087 139.499 137.153Z" fill="#FFA4AC"/>
<path d="M135.904 31.3491H125.083C121.76 31.3491 121.76 36.5021 125.083 36.5021H135.904C139.227 36.5021 139.227 31.3491 135.904 31.3491Z" fill="#F1854F"/>
<path d="M149.318 31.0853C148.009 31.1483 146.669 31.2473 145.362 31.1103C143.967 30.9623 142.617 31.5713 142.283 33.0593C142.004 34.3083 142.834 35.9913 144.232 36.1393C146.018 36.3273 147.775 36.3193 149.565 36.2323C150.968 36.1663 152.084 34.9383 152.015 33.5363C151.949 32.1333 150.721 31.0193 149.318 31.0853Z" fill="#F1854F"/>
</svg>
